# xmcd CD database file generated by Grip 2.9# # Track frame offsets:#       182#       17480#       40660#       61015#       80680#       101790#       119770#       141612#       157117# # Disc length: 2316 seconds# # Revision: 3# Processed by: cddbd v1.4b39PL0 Copyright (c) 1996-1997 Steve Scherf# Submitted via: Grip 2.9# DISCID=7b090a09DTITLE=Marla Glen / This is Marla GlenTTITLE0=The Cost Of FreedomTTITLE1=BelieverTTITLE2=Destiny (To Get Up Again)TTITLE3=EnoughTTITLE4=PersonalTTITLE5=ControlTTITLE6=TravelTTITLE7=Feet On The GroundTTITLE8=You Hurt MeEXTD=EXTT0=EXTT1=EXTT2=EXTT3=EXTT4=EXTT5=EXTT6=EXTT7=EXTT8=PLAYORDER=.# xmcd CD database file# Copyright (C) 1995 Ti Kan## Track frame offsets:#	182#	17460#	33037#	49202#	62910#	77590#	100432#	115257#	131057#	149525#	168122#	186867#	204372## Disc length: 2972 seconds## Revision: 1# Processed by: cddbd v1.4b39PL0 Copyright (c) 1996-1997 Steve Scherf# Submitted via: NotifyCDPlayer(CDDB) 1.05#DISCID=ad0b9a0dDTITLE=Leningrad Cowboys / Go SpaceTTITLE0=Where's The MoonTTITLE1=Space TractorTTITLE2=Universal FieldsTTITLE3=Jupiter CallingTTITLE4=GalinaTTITLE5=LiningradTTITLE6=Ulan Bator GirlsTTITLE7=Brave New WorldTTITLE8=NadjaTTITLE9=MatushkaTTITLE10=ZastarovjeTTITLE11=L.A. Doga BeachTTITLE12=Little Green MenEXTD=EXTT0=EXTT1=EXTT2=EXTT3=EXTT4=EXTT5=EXTT6=EXTT7=EXTT8=EXTT9=EXTT10=EXTT11=EXTT12=PLAYORDER=.# xmcd CD database file generated by Grip 2.9# # Track frame offsets:#       182#       17480#       40660#       61015#       80680#       101790#       119770#       141612#       157117# # Disc length: 2316 seconds# # Revision: 3# Processed by: cddbd v1.4b39PL0 Copyright (c) 1996-1997 Steve Scherf# Submitted via: Grip 2.9# DISCID=7b090a09DTITLE=Marla Glen / This is Marla GlenTTITLE0=The Cost Of FreedomTTITLE1=BelieverTTITLE2=Destiny (To Get Up Again)TTITLE3=EnoughTTITLE4=PersonalTTITLE5=ControlTTITLE6=TravelTTITLE7=Feet On The GroundTTITLE8=You Hurt MeEXTD=EXTT0=EXTT1=EXTT2=EXTT3=EXTT4=EXTT5=EXTT6=EXTT7=EXTT8=PLAYORDER=.# xmcd CD database file# Copyright (C) 1995 Ti Kan## Track frame offsets:#	182#	17460#	33037#	49202#	62910#	77590#	100432#	115257#	131057#	149525#	168122#	186867#	204372## Disc length: 2972 seconds## Revision: 1# Processed by: cddbd v1.4b39PL0 Copyright (c) 1996-1997 Steve Scherf# Submitted via: NotifyCDPlayer(CDDB) 1.05#DISCID=ad0b9a0dDTITLE=Leningrad Cowboys / Go SpaceTTITLE0=Where's The MoonTTITLE1=Space TractorTTITLE2=Universal FieldsTTITLE3=Jupiter CallingTTITLE4=GalinaTTITLE5=LiningradTTITLE6=Ulan Bator GirlsTTITLE7=Brave New WorldTTITLE8=NadjaTTITLE9=MatushkaTTITLE10=ZastarovjeTTITLE11=L.A. Doga BeachTTITLE12=Little Green MenEXTD=EXTT0=EXTT1=EXTT2=EXTT3=EXTT4=EXTT5=EXTT6=EXTT7=EXTT8=EXTT9=EXTT10=EXTT11=EXTT12=PLAYORDER=.# xmcd CD database file# Copyright (C) 1993-1999 CDDB, Inc.## Track frame offsets:#	182#	17479#	40660#	61017#	80679#	101795#	119773#	141606#	157119## Disc length: 2314 seconds## Revision: 2# Processed by: cddbd v1.4.1b18PL0 Copyright (c) 1996-2000 CDDB Inc.# Submitted via: EZCDDA 0.1#DISCID=7b090809DTITLE=Marla Glen / This is Marla GlenTTITLE0=The Cost Of FreedomTTITLE1=BelieverTTITLE2=Destiny (To Get Up Again)TTITLE3=EnoughTTITLE4=PersonalTTITLE5=ControlTTITLE6=TravelTTITLE7=Feet On The GroundTTITLE8=You Hurt MeEXTD=EXTT0=EXTT1=EXTT2=EXTT3=EXTT4=EXTT5=EXTT6=EXTT7=EXTT8=PLAYORDER=.